<svg width="2839" height="624" viewBox="0 0 2839 624" fill="none" xmlns="http://www.w3.org/2000/svg">
<path opacity="0.5" d="M1419.5 513.047C1419.5 513.047 1085.71 654.512 713.814 551.697C381.19 459.746 0 593.519 0 593.519V0H1419.5V513.047Z" fill="#CCE5F6"/>
<path opacity="0.5" d="M1419.5 593.519C1419.5 593.519 1077.34 685.755 738.665 549.33C412.74 418.054 0 522.514 0 522.514V0H1419.5V593.519Z" fill="#CCE5F6"/>
<path d="M1419.5 558.017C1419.5 558.017 1089.24 668.962 713.814 555.247C354.599 446.456 0 558.017 0 558.017V0H1419.5V558.017Z" fill="#CCE5F6"/>
<path opacity="0.5" d="M2838.41 513.047C2838.41 513.047 2504.63 654.512 2132.73 551.697C1800.11 459.746 1418.92 593.519 1418.92 593.519V0H2838.41V513.047Z" fill="#CCE5F6"/>
<path opacity="0.5" d="M2838.41 593.519C2838.41 593.519 2496.25 685.755 2157.58 549.33C1831.66 418.054 1418.92 522.514 1418.92 522.514V0H2838.41V593.519Z" fill="#CCE5F6"/>
<path d="M2838.41 558.017C2838.41 558.017 2508.16 668.962 2132.73 555.247C1773.52 446.456 1418.92 558.017 1418.92 558.017V0H2838.41V558.017Z" fill="#CCE5F6"/>
</svg>
