<?xml version="1.0" encoding="iso-8859-1"?>
<!-- Generator: Adobe Illustrator 26.0.1, SVG Export Plug-In . SVG Version: 6.00 Build 0)  -->
<svg version="1.1" id="Capa_1" xmlns="http://www.w3.org/2000/svg" xmlns:xlink="http://www.w3.org/1999/xlink" x="0px" y="0px"
	 viewBox="0 0 693.6 481.94" style="enable-background:new 0 0 693.6 481.94;" xml:space="preserve">
<style type="text/css">
	.st0{fill:#9FD9ED;}
	.st1{fill:#B9E3EE;}
	.st2{fill:#2ECC71;}
	.st3{fill:#4CA6D8;}
	.st4{fill:#1ABC9C;}
	.st5{fill:#F6B492;}
	.st6{fill:#E6F2FB;}
	.st7{fill:#DCEAF1;}
	.st8{fill:#CF7C66;}
	.st9{fill:#45D582;}
	.st10{fill:#2980B9;}
	.st11{fill:#E1B392;}
	.st12{fill:#3176A5;}
	.st13{fill:#C0CCCC;}
	.st14{fill:#28B363;}
	.st15{fill:#239955;}
	.st16{fill:#60DB94;}
	.st17{fill:#95E7B8;}
	.st18{fill:#7AE1A6;}
	.st19{fill:#71BFE2;}
	.st20{fill:#241021;}
	.st21{fill:#3B1932;}
	.st22{fill:#F39C12;}
</style>
<g>
	<g>
		<path class="st0" d="M-476.88-1821.32c-24.07-97.56-116.32-141.25-228.7-45.95c-72.57,61.53-156.36,46.13-210.23,18.4
			c-115.14-59.25-219.04,54.31-181.94,193.75c7.68,28.88,18.44,53.47,31.06,74.5h522.24
			C-486.86-1646.89-455.57-1734.93-476.88-1821.32z"/>
		<path class="st1" d="M-1066.49-1580.61h522.24c33.07-38.05,57.44-83.28,68.19-131.25c-65.01,17.64-175.2,35.4-297.2,3.05
			c-125.05-33.15-254.3-3.38-330.4,21.98c1.24,10.37,3.26,20.97,6.12,31.72C-1089.86-1626.24-1079.11-1601.65-1066.49-1580.61z"/>
	</g>
	<path class="st2" d="M-951.16-1744.06c-3.85,17.48-19.31,94.41-32.78,163.45h67.52c1.82-7.13,3.34-13.72,4.42-19.44
		c0,3.36-0.21,10.34-0.57,19.44h68.87c9.98-77.48,16.64-158.88,16.64-158.88S-893.68-1783.22-951.16-1744.06z"/>
	<path class="st3" d="M-514.38-1621.05c-9.97-50.41-19.26-96.31-22.07-109.09c-55.05-37.5-118.86,4.38-118.86,4.38
		s5.98,73.13,15.04,145.15h66.59c-0.18-5.26-2.89-35.32-2.89-37.61c0.67,3.54,9.32,33.45,10.31,37.61h21.79
		C-533.4-1593.34-523.31-1606.88-514.38-1621.05z"/>
	<path class="st4" d="M-614.34-1810.12c0,0-14.97-13.02-5.22-29.18c9.76-16.16,25.8-35.87,39.47-30.75
		c13.66,5.12,10.31,38.12,0.71,53.79S-602.05-1802.39-614.34-1810.12z"/>
	<path class="st5" d="M-621.21-1824.42c0.04-0.05,0.13-0.16,0.12-0.15l-0.04,0.06c-0.03,0.04-0.04,0.08-0.1,0.16l-0.31,0.46
		c-0.25,0.34-0.49,0.69-0.79,1.05c-0.56,0.72-1.18,1.48-1.83,2.21c-1.31,1.46-2.7,2.92-4.19,4.24c-2.94,2.72-6.19,5.01-9.55,6.88
		c-6.75,3.76-14.1,5.6-21.98,5.42c-3.94-0.07-8.02-0.82-12.15-1.88l-3.11-0.92c-1.04-0.3-2.07-0.77-3.11-1.14
		c-2.09-0.7-4.15-1.74-6.23-2.68c-8.31-3.95-16.4-9.57-24.11-15.91l-0.18-0.15c-6.2-5.1-15.35-4.2-20.45,1.99
		c-4.8,5.84-4.24,14.35,1.02,19.57c8.35,8.24,17.52,16.07,28.3,22.52c2.73,1.57,5.41,3.2,8.35,4.55c1.46,0.69,2.86,1.45,4.37,2.06
		l4.56,1.84c6.19,2.26,12.73,4.11,19.62,4.94c6.87,0.84,14,0.82,21.02-0.19c7.02-1.01,13.9-3,20.33-5.78
		c6.43-2.79,12.47-6.29,17.96-10.41c2.78-2.04,5.39-4.26,7.94-6.61c1.28-1.18,2.52-2.4,3.76-3.71c0.62-0.64,1.24-1.33,1.87-2.03
		l0.97-1.12l0.53-0.64l0.27-0.34l0.42-0.56c6.56-9.18,2.23-18.91-6.95-25.47S-614.65-1833.61-621.21-1824.42z"/>
	<path class="st6" d="M-587.93-1895.28c0,0-44.7,7.86-73.74,169.98c69.56-6.05,137.92,21.17,137.92,21.17s27.83-133.92-11.49-186.73
		C-558.83-1914.64-587.93-1895.28-587.93-1895.28z"/>
	<path class="st5" d="M-584-1916.25c0,0,8.96,14.42,5.48,16.82s-26.64,14.12-0.95,10.91c31.43-3.93,28.46-9.78,22.46-12.34
		c-6-2.56-9.65-9.72-7.91-20.31c1.74-6.55,0.32-12.01-11.55-10.59C-588.33-1930.33-589.06-1921.82-584-1916.25z"/>
	<path class="st5" d="M-583.05-1907.54c0,0,19.8,0.84,23.35-16.1c3.54-16.94,7.17-51.62-16.64-52.52
		c-23.81-0.89-35.02,20.37-35.76,41.4S-595.45-1905.01-583.05-1907.54z"/>
	<path class="st2" d="M-579.25-1958.79c0,0-43.28,8.78-47.67-12.54c-4.39-21.32,18.82-11.29,18.82-11.29s0-14.43,14.43-11.29
		c14.43,3.14,14.43,11.29,14.43,11.29s47.67-8.78,34.49,28.85c-13.17,37.63-16.93,28.85-16.93,28.85s13.17-40.14-7.53-23.83
		c-4.39,3.14-10.03,2.51-10.03,2.51S-573.6-1950.64-579.25-1958.79z"/>
	<path class="st5" d="M-574-1856.93c-0.03,0.08-0.26,0.47-0.41,0.74l-0.53,0.92l-1.14,1.9c-0.78,1.27-1.59,2.56-2.42,3.83
		c-1.66,2.55-3.39,5.08-5.17,7.55c-3.57,4.95-7.36,9.69-11.32,14.08c-3.97,4.38-8.13,8.4-12.38,11.79c-4.24,3.39-8.6,6.13-12.68,7.8
		c-4.1,1.68-7.71,2.3-11.04,1.98c-3.33-0.31-6.8-1.68-10.5-4.28c-3.68-2.61-7.36-6.42-10.75-10.87c-3.41-4.44-6.54-9.53-9.39-14.92
		l-0.05-0.09c-4.12-7.75-13.74-10.7-21.49-6.59c-7.48,3.97-10.47,13.1-6.98,20.7c3.1,6.72,6.66,13.42,11.09,19.97
		c4.43,6.53,9.72,13.01,16.71,18.7c3.51,2.82,7.44,5.43,11.83,7.56c4.37,2.13,9.21,3.73,14.21,4.59c4.99,0.87,10.1,0.98,14.96,0.47
		c4.87-0.51,9.5-1.62,13.81-3.08c8.63-2.96,15.98-7.21,22.58-11.85c6.59-4.66,12.44-9.77,17.85-15.09
		c5.4-5.34,10.37-10.9,15.03-16.65c2.33-2.88,4.59-5.8,6.78-8.79c1.1-1.49,2.18-3.01,3.25-4.56l1.61-2.36l0.81-1.23l0.91-1.42
		l1.02-1.6c6.11-9.57,1.93-18.8-7.64-24.91c-9.57-6.11-20.89-6.79-27.01,2.78C-573.04-1858.93-573.58-1857.88-574-1856.93z"/>
	<path class="st6" d="M-544.18-1877.78c0,0,33.04,30.58-3.52,54.87c2.82-19.52-31.87-29.66-31.87-29.66
		S-578.87-1891.72-544.18-1877.78z"/>
	<g>
		<path class="st5" d="M-674.38-1875.07c0,0,15.74,30.63,7.31,41.14s-28.34,19.97-29.19-15.23
			C-697.8-1878.28-678.85-1884.12-674.38-1875.07z"/>
		<path class="st5" d="M-675.72-1877.07c0,0-11.34-12.89-18.83-9.25c-7.5,3.64,7.21,15.58,10.18,18.22
			C-681.4-1865.45-670.63-1869.7-675.72-1877.07z"/>
		<path class="st5" d="M-684.88-1874.6c0,0-13.85-10.14-20.38-4.97c-6.54,5.17,10.4,13.66,13.87,15.6
			C-687.92-1862.03-678.32-1868.5-684.88-1874.6z"/>
		<path class="st5" d="M-690.57-1868.47c0,0-14.92-8.49-20.82-2.6c-5.9,5.89,11.9,12.38,15.57,13.91S-683.35-1863.17-690.57-1868.47
			z"/>
		<path class="st5" d="M-692.39-1858.99c0,0-15.37-6.87-19.71-0.84s13.31,10.78,16.99,11.94
			C-691.44-1846.73-684.73-1854.53-692.39-1858.99z"/>
	</g>
	<path class="st5" d="M-756.06-1850.82c3.05-5.16,11.95,0.19,11.95,0.19s0.52-1.06,7.14,0.06c3.92,1.35,7.95,3.62,11.47,5.93
		c0.03-0.73,0.19-1.32,0.51-1.73c3.53-4.43,8.72,1.45,8.72,1.45c13.1,11.02,12.01,18.68,8.85,23.14c0.36,3.61-0.88,7.07-4.65,10.27
		c-8.75,7.43-18.86,2.26-24.12-2.58c-3.15-2.9-7.23-13.27-13.9-17.53c-6.67-4.25-7.03-7.96-6.07-10.57
		c-3.27-2.35-0.66-5.95-0.66-5.95S-757.54-1848.83-756.06-1850.82z"/>
	<path class="st0" d="M-744.16-1881.65l-16.7-2.82c-0.4-0.06-0.84-0.09-1.26-0.06c-2.96,0.2-5.2,2.77-4.99,5.73
		c0.2,2.96,2.77,5.2,5.73,4.99l16.9-1.17c1.52-0.1,2.82-1.23,3.09-2.8C-741.09-1879.6-742.33-1881.34-744.16-1881.65z"/>
	<path class="st0" d="M-732.96-1897.24l-11.05-21.33c-0.12-0.22-0.27-0.47-0.42-0.69c-1.81-2.53-5.32-3.11-7.84-1.3
		c-2.53,1.81-3.11,5.32-1.3,7.84l13.98,19.54c1.11,1.56,3.22,2.1,4.97,1.2C-732.72-1892.97-731.97-1895.32-732.96-1897.24z"/>
	<path class="st0" d="M-713.07-1919.62c-3.44-0.17-6.37,2.48-6.54,5.91l-0.68,13.63c-0.09,1.75,0.96,3.44,2.69,4.08
		c2.14,0.79,4.52-0.29,5.31-2.43l4.76-12.79c0.21-0.58,0.35-1.22,0.38-1.86C-706.98-1916.52-709.63-1919.45-713.07-1919.62z"/>
	<path class="st7" d="M-815.05-1725.4c0,0-93.23-6.22-148.55,25.48c-6.84-80.8,11.19-172.79,11.19-172.79s1.86-28.59,58.43-20.51
		s57.18,33.56,57.18,33.56S-817.54-1774.5-815.05-1725.4z"/>
	<path class="st8" d="M-858.28-1883.21c0,0,22.1,10.5,26.14,24.18c1.24,9.32-11.81,21.44-11.81,21.44
		S-851.48-1875.06-858.28-1883.21z"/>
	<path class="st9" d="M-860.68-1888.9c0,0-18.64-9.79-8.85,8.39c9.79,18.18,30.14,88.29,32.55,137.61
		c2.41,49.32,18.73,60.44,32.24,63.04c13.52,2.6,11.19-21.64,6.06-31.9s-24.99-112.42-26.25-132.43
		C-826.17-1864.2-839.24-1876.32-860.68-1888.9z"/>
	<path class="st10" d="M-882.89-1855.21c1.02-1.93,1.79-4.65,2.18-8.44v-3.59c0,0-11.9-8.14-12.59-14.32
		c-2.8,13.52-12.12,18.74-12.12,18.74s6.51,7.83,12.88,10.55c22.59,66.26,22.36,96.82,18.34,117.75
		c-4.08,21.2-26.75,46.66-28.11,53.65c-1.36,6.98,14.16,15.94,22.63,11.33c8.47-4.61,28.85-21.72,33.07-65.89
		C-842.85-1783.12-874.92-1841.52-882.89-1855.21z"/>
	<path class="st11" d="M-888.32-1916.48c0,0-10.33,17.58-5.47,20.23s28.31,14.87-0.53,14.87c-28.4,0-35.59-10.2-27.98-14.16
		s11.77-11.68,8.28-24.95c-3.04-8.13-1.78-15.24,14.01-14.83C-884.22-1934.91-882.29-1924.16-888.32-1916.48z"/>
	<path class="st9" d="M-924.84-1888.75c0,0,24.94,19.2,19.35,74.68c-5.59,55.47-4.66,98.36-53.61,130.52
		c-27.97,16.32-63.86,34.96-70.86,8.86c-6.99-26.1,33.1-45.22,42.89-60.13c9.79-14.92,21.26-68.76,6.66-99.29
		c-14.6-30.53-2.1-44.19,15.27-52.85C-944.84-1897.09-924.84-1888.75-924.84-1888.75z"/>
	<g>
		<path class="st5" d="M-892.41-1913.43c0,0-21.63,0.92-25.5-17.58c-3.87-18.5-7.84-56.39,18.18-57.37
			c26.01-0.98,38.25,22.26,39.07,45.23C-859.86-1920.19-878.86-1910.67-892.41-1913.43z"/>
		<path class="st12" d="M-862.89-1927.91c-10.71,7.62-18.66,5.82-24.46,0.46c9.13-11.63,31.1-2.75,31.02-9.75
			c-2.42-14.98-28.7,0.65-35.24,4.79c-6.96-10.2-9.49-24.85-9.49-24.85s-0.45-3.03-4.36-4.04c1.95,13.89,2.17,39.9-5.43,43.44
			c-1.95,4.29,1.3,17.17,11.94,8.08c-1.3,10.1,5.65,22.98,18.24,8.84c7.17,13.13,24.54,8.33,20.01-7.1
			C-854.97-1906.31-844.02-1909-862.89-1927.91z"/>
		<path class="st12" d="M-916.41-1926.37l3.62-10.11c0,0-16.8-32.89,8.57-18.09c5.11-8.47,18.85-30.66,30.4-15.85
			c9.67-13.9,29.87-35.62-4.66-28.45c-13.03,2.61-25.19,8.09-34.31,10.45S-946.96-1961.58-916.41-1926.37z"/>
	</g>
	<path class="st9" d="M-974.21-1884.03c-1.02,1.2-3.05,3.54-4.08,4.7c-14.41,16.19-29.95,32.32-46.45,45.81
		c-4.87,3.93-10.24,7.92-15.39,10.85c0.06-6.3,1.04-12.9,2.09-19.28c1.31-7.56,3.09-15.39,5.06-23.25
		c6.42-30.16-33.36-39.53-42.55-9.99c-7.05,26.97-18.61,71.1,1.1,93.04c13.7,15.26,34.48,12.65,51.43,3.74
		c17.02-8.82,31.66-21.26,45.75-34.02c13.17-12.13,25.62-24.83,37.59-38.2C-917.78-1877.12-950.94-1909.04-974.21-1884.03z
		 M-1039.48-1814.79C-1039.31-1814.4-1039.38-1814.46-1039.48-1814.79L-1039.48-1814.79z"/>
	<path class="st9" d="M-777.59-1805.26c-13.55-22.5-32.17-39.64-49.61-59.35c-18.06-18.69-41.72-2.06-25.92,18.34
		c1.02,1.2,2.98,3.57,3.96,4.77c13.46,16.62,23.31,37.38,33.57,55.78c3.27,5.95,6.46,12.46,8.32,18.57c0.1,0.34,0.2,0.68,0.3,1.03
		c-7.54-0.6-15.23-2.94-22.56-5.13c-7.53-2.36-15.24-5.27-22.9-8.31c-12.14-4.44-25.79,1.28-30.48,12.77
		c-4.69,11.49,1.35,24.41,13.49,28.86c8.42,3.08,17,6,26.01,8.56c15.43,4.2,31.49,7.94,48.02,5.69c9.5-1.37,18.64-5.39,24.99-12.55
		C-752.4-1757.22-765.83-1785.06-777.59-1805.26z M-806.13-1760.36c0-0.1,0.03-0.2,0.05-0.31c-0.01,0.07-0.01,0.12-0.01,0.19
		C-806.12-1760.43-806.11-1760.34-806.13-1760.36z"/>
	<path class="st5" d="M-854.61-1775.59c0,0-22.56-9.42-35.81-6.12c-10.96-0.68-32.14-1.63-36.23,0.75
		c-5.57,3.24-6.38,13.4,6.63,14.43c5.89,0.47,12.52-0.19,18.66-1.27c-2.47,14.2,5.34,32.9,30.2,27.76
		C-845.42-1744.31-846.46-1771.95-854.61-1775.59z"/>
	<g>
		<g>
			<path class="st6" d="M-1076.79-1825.95c30.64-30.79-14.9-83.49-14.9-83.49h57.98l0,0.01l45.97-0.01c0,0,45.01,49.69,14.36,80.48
				c-30.64,30.79,13.44,75.32,13.44,75.32h-76.24l0-0.01l-27.71,0.01C-1063.88-1753.64-1107.43-1795.16-1076.79-1825.95z"/>
			<g>
				<path class="st13" d="M-1063.67-1879.38h86.38c1.1,2.52,2.1,5.13,2.95,7.79h-86.26
					C-1061.51-1874.25-1062.55-1876.86-1063.67-1879.38z"/>
				<path class="st13" d="M-1058.24-1863.04h86.01c0.44,2.59,0.68,5.19,0.7,7.79h-85.62
					C-1057.33-1857.85-1057.7-1860.45-1058.24-1863.04z"/>
				<path class="st13" d="M-1057.41-1846.7h85.01c-0.57,2.64-1.45,5.25-2.68,7.79h-84.23
					C-1058.38-1841.45-1057.75-1844.06-1057.41-1846.7z"/>
				<path class="st13" d="M-1067.65-1825.95c1.42-1.42,2.67-2.89,3.77-4.4h82.99c-0.42,0.47-0.86,0.93-1.32,1.39
					c-2.03,2.04-3.72,4.18-5.12,6.39h-83.32C-1069.74-1823.72-1068.75-1824.85-1067.65-1825.95z"/>
				<path class="st13" d="M-991.22-1814.02c-0.76,2.55-1.24,5.15-1.45,7.79h-85.18c0.42-2.64,1.12-5.24,2.17-7.79H-991.22z"/>
			</g>
		</g>
		<g>
			<polygon class="st14" points="-1018.7,-1740.62 -1007.03,-1749.02 -995.35,-1740.62 -995.35,-1768.58 -1018.7,-1768.58 			"/>
			<circle class="st9" cx="-1007.03" cy="-1777.93" r="19.56"/>
			<circle class="st15" cx="-1007.03" cy="-1777.93" r="13.72"/>
		</g>
	</g>
	<path class="st5" d="M-1054.98-1904.61c0,0,22.55,20.87,34.96,11.44s27.72-32.7-4-36.01
		C-1050-1932.92-1061.7-1910.56-1054.98-1904.61z"/>
</g>
<g>
	<g>
		<path class="st0" d="M-183.69-1836.52c-85.57-148.49,4.59-267.48,75.81-299.04c99.13-43.94,154.47,13.37,217.67,70.09
			c52.74,47.34,131.78,74.72,229.9,62.43c73.16-9.16,100.24,72.33,36.48,170.79c-4.58,7.07-9.33,13.79-14.21,20.22h-529.92
			C-173.45-1819.77-178.72-1827.9-183.69-1836.52z"/>
		<path class="st1" d="M376.17-1832.25c-4.58,7.07-9.33,13.79-14.21,20.22h-529.92c-5.49-7.74-10.76-15.87-15.73-24.49
			c-25.11-43.57-35.07-84.59-34.84-121.61c62.2-11.76,175.79-22.75,288.56,20.1c124.16,47.19,272.76,12.95,341.36-7.92
			C414.65-1915.49,404.19-1875.52,376.17-1832.25z"/>
	</g>
	<path class="st5" d="M200.7-1891.59c-1.09-0.81-1.66-1.3-2.43-1.92c-0.75-0.6-1.38-1.16-2.07-1.74c-1.38-1.15-2.65-2.31-3.94-3.47
		c-2.57-2.32-5.04-4.66-7.45-7.05c-2.4-2.39-4.79-4.78-7.06-7.25c-2.33-2.43-4.56-4.92-6.76-7.44
		c-8.82-10.04-16.96-20.54-24.54-31.38l-5.5-8.24l-2.72-4.13l-2.58-4.22l-5.14-8.44l-4.82-8.61l-2.4-4.3
		c-0.78-1.45-1.5-2.92-2.25-4.38l-4.45-8.78c-2.89-5.89-5.49-11.9-8.24-17.84c-3.12-6.75-0.18-14.75,6.57-17.87
		c6.5-3.01,14.17-0.39,17.51,5.84l0.38,0.71c2.88,5.4,5.61,10.88,8.6,16.2l4.59,7.92c0.77,1.32,1.51,2.65,2.3,3.95l2.45,3.86
		l4.89,7.71l5.17,7.51l2.59,3.75l2.71,3.65l5.46,7.27c7.48,9.52,15.4,18.64,23.79,27.18c2.09,2.14,4.2,4.26,6.38,6.28
		c2.13,2.08,4.33,4.05,6.54,6.01c2.2,1.96,4.44,3.85,6.67,5.65c1.12,0.89,2.24,1.81,3.34,2.62c0.54,0.4,1.12,0.87,1.63,1.22
		c0.48,0.34,1.15,0.84,1.35,0.95c8.47,4.91,8.53,15.09,3.62,23.56c-4.91,8.47-12.92,12.03-21.39,7.13c-0.58-0.33-1.13-0.7-1.65-1.08
		L200.7-1891.59z"/>
	<path class="st5" d="M-27.01-1882.79c1.12-0.77,1.7-1.24,2.5-1.83c0.77-0.57,1.42-1.11,2.14-1.67c1.43-1.1,2.73-2.21,4.07-3.32
		c2.65-2.23,5.21-4.48,7.7-6.78c2.49-2.3,4.96-4.61,7.32-6.99c2.42-2.34,4.74-4.75,7.03-7.19c9.18-9.71,17.69-19.91,25.67-30.46
		l5.8-8.03l2.87-4.03l2.73-4.12l5.44-8.25l5.13-8.43l2.56-4.21c0.83-1.42,1.6-2.87,2.4-4.3l4.77-8.61c3.1-5.78,5.92-11.7,8.88-17.53
		c3.37-6.63,0.72-14.73-5.91-18.1c-6.39-3.24-14.14-0.9-17.71,5.2l-0.4,0.69c-3.08,5.29-6,10.67-9.19,15.88l-4.87,7.75
		c-0.82,1.29-1.61,2.59-2.45,3.86l-2.59,3.77l-5.17,7.53l-5.44,7.32l-2.72,3.65l-2.85,3.55l-5.72,7.07
		c-7.82,9.24-16.07,18.07-24.76,26.3c-2.17,2.07-4.35,4.1-6.6,6.04c-2.21,2-4.48,3.89-6.75,5.77c-2.27,1.87-4.58,3.68-6.87,5.4
		c-1.15,0.85-2.3,1.73-3.43,2.5c-0.56,0.38-1.15,0.83-1.68,1.16c-0.49,0.32-1.18,0.79-1.38,0.9c-8.65,4.6-9.07,14.77-4.48,23.42
		s12.47,12.5,21.12,7.9c0.59-0.31,1.15-0.65,1.69-1.02L-27.01-1882.79z"/>
	<path class="st3" d="M209.05-2047.26c0,0-31.03,5.07-23.4,46.86c7.64,41.79,15.52,80.94,13.19,105.36
		c-2.34,24.42,36.96,67.66,77.33,60.7s76.53-42.25,46.84-79.25s-57.3-76.2-66.68-100.87
		C246.94-2039.12,230.78-2052.44,209.05-2047.26z"/>
	<path class="st16" d="M228.59-1953.96c-51.45,20.3-46.32,44.44-46.32,44.44s0.6,52.37,5.08,97.49h145.69
		c-14.71-69.55-44.82-135.71-44.82-135.71S280.04-1974.26,228.59-1953.96z"/>
	<path class="st6" d="M-17.7-1910.29c0,0,13.03-21.52-36.88-37.02c-49.91-15.51-55.74,10.04-55.74,10.04s-23.37,60.17-32.63,125.24
		h124.04C-16.55-1856.07-17.7-1910.29-17.7-1910.29z"/>
	<g>
		<path class="st5" d="M144.21-2053.58c0,0-9.74,26.6-20.81,27.37s-27.88-6.01-7.07-26.15
			C133.09-2069.54,147.19-2061.33,144.21-2053.58z"/>
		<path class="st5" d="M144.68-2055.5c0,0,1.47-14.05-4.91-16.55s-5.4,13.05-5.34,16.32
			C134.48-2052.46,143.06-2048.31,144.68-2055.5z"/>
		<path class="st5" d="M138.08-2059.67c0,0-1.59-14.03-8.36-15.1c-6.77-1.07-2.46,13.91-1.7,17.09
			C128.78-2054.49,138.05-2052.3,138.08-2059.67z"/>
		<path class="st5" d="M131.2-2059.69c0,0-3.19-13.76-10.04-14.04c-6.85-0.28-0.85,14.1,0.27,17.17
			C122.55-2053.48,132.01-2052.36,131.2-2059.69z"/>
		<path class="st5" d="M124.45-2055.5c0,0-4.42-13.13-10.48-12.39c-6.06,0.74,0.91,14.06,2.25,16.93
			C117.56-2048.08,126.02-2048.38,124.45-2055.5z"/>
	</g>
	<g>
		<path class="st5" d="M43.32-2045.94c0,0-0.16,29.75,10.45,34.56c10.61,4.81,29.64,4.31,16.54-23.14
			C60.11-2057.57,43.23-2054.66,43.32-2045.94z"/>
		<path class="st5" d="M43.57-2048.01c0,0,3.7-14.36,10.9-14.48c7.2-0.12,0.53,14.82-0.72,18.02
			C52.49-2041.27,42.53-2040.34,43.57-2048.01z"/>
		<path class="st5" d="M51.59-2049.68c0,0,6.7-13.23,13.76-11.8c7.06,1.43-2.68,14.59-4.59,17.44
			C58.85-2041.19,48.92-2042.42,51.59-2049.68z"/>
		<path class="st5" d="M58.37-2047.18c0,0,8.18-12.37,15.03-10.14c6.85,2.23-4.33,14.19-6.56,16.8
			C64.61-2037.91,54.89-2040.27,58.37-2047.18z"/>
		<path class="st5" d="M63.48-2040.59c0,0,9.16-11.3,14.86-8.35c5.7,2.95-6.04,13.51-8.42,15.84
			C67.54-2030.77,59.32-2034.16,63.48-2040.59z"/>
	</g>
	<path class="st16" d="M212.46-1946.99c0,0-33.12-19.78-38.29-12.07c-12.22,30.2,9.66,67.5,9.66,67.5S205.32-1939.6,212.46-1946.99z
		"/>
	<path class="st5" d="M219.77-1971.13c0,0,13.37,14.53,9.32,18.03c-4.06,3.5-38.76,24.83,0.68,15.29
		c39.44-9.54,34.46-18.26,26.44-20.45c-8.01-2.19-13.53-8.64-12.94-21.92c1.21-8.31-1.43-14.79-16.29-11.17
		C212.12-1987.73,212.49-1977.16,219.77-1971.13z"/>
	<path class="st5" d="M194.47-2027.16c-0.47,1-33.56,71.86,26.06,59.65c0,0,29.47-3.69,27.66-49.39
		C246.86-2050.49,205.8-2051.21,194.47-2027.16z"/>
	<path class="st3" d="M218.47-2047.69c0,0-36.37,36.12,31.77,62.15C265.72-2052.8,218.47-2047.69,218.47-2047.69z"/>
	<path class="st3" d="M232.37-2041.72c0,0-33.05,7.46-45.04,28.1C190.39-2060.06,232.37-2041.72,232.37-2041.72z"/>
	<path class="st16" d="M245.36-1940.25c0,0,23.08-16.9,28.99-33.45c26.25,19.29,27.2,62.53,27.2,62.53
		S255.32-1937.72,245.36-1940.25z"/>
	<path class="st5" d="M290.52-1956.04c-0.39-1.3-0.65-2-0.97-2.95c-0.31-0.91-0.62-1.69-0.93-2.55c-0.61-1.7-1.26-3.28-1.91-4.89
		c-1.3-3.21-2.65-6.34-4.07-9.41c-1.42-3.08-2.85-6.14-4.39-9.12c-1.48-3.02-3.05-5.98-4.67-8.9c-6.4-11.73-13.48-22.97-21.06-33.81
		l-5.85-8l-2.95-3.98l-3.08-3.87l-6.16-7.72l-6.44-7.48l-3.22-3.73c-1.09-1.22-2.23-2.41-3.35-3.61l-6.72-7.19
		c-4.54-4.73-9.3-9.24-13.93-13.86c-5.27-5.25-13.79-5.23-19.04,0.04c-5.06,5.08-5.22,13.17-0.52,18.45l0.53,0.6
		c4.08,4.56,8.29,9,12.27,13.64l5.87,7.03c0.97,1.18,1.97,2.33,2.92,3.52l2.78,3.63l5.57,7.24l5.28,7.43l2.63,3.72l2.5,3.8
		l4.96,7.62c6.37,10.29,12.23,20.86,17.37,31.67c1.3,2.7,2.56,5.41,3.71,8.14c1.22,2.72,2.32,5.46,3.4,8.2
		c1.08,2.73,2.09,5.49,3.02,8.2c0.45,1.36,0.94,2.73,1.32,4.04c0.19,0.65,0.43,1.35,0.59,1.95c0.15,0.57,0.39,1.37,0.43,1.59
		c1.7,9.64,11.25,13.19,20.89,11.48c9.64-1.7,15.74-8.01,14.03-17.65c-0.12-0.66-0.27-1.3-0.45-1.93L290.52-1956.04z"/>
	<path class="st5" d="M-44.9-1964.89c0,0-13.01,14.98-9.44,18.39c3.57,3.42,28.12,21.23-0.93,12.76
		c-35.53-10.36-31.02-16.56-23.63-18.4c7.39-1.84,12.93-9.42,12.89-21.96c-0.79-7.88,1.86-13.91,15.29-10.08
		S-38.03-1970.37-44.9-1964.89z"/>
	<g>
		<path class="st5" d="M-43.06-1954.57c0,0-20.55,1.21-24.51-16.32s-8.32-53.48,16.39-54.81s36.71,20.56,37.83,42.38
			S-30.14-1952.16-43.06-1954.57z"/>
		<path class="st14" d="M-47.87-2007.73c0,0,45.08,8.39,49.28-13.83s-19.73-11.4-19.73-11.4s-0.24-14.98-15.17-11.48
			s-14.79,11.97-14.79,11.97s-49.64-8.31-35.33,30.54c14.31,38.85,18.07,29.67,18.07,29.67s-14.35-41.46,7.41-24.87
			c4.61,3.18,10.46,2.44,10.46,2.44S-53.6-1999.17-47.87-2007.73z"/>
	</g>
	<path class="st6" d="M-42.61-1940.08c0,0,36.08-13.64,39.82-5.14c6.71,31.88-21.39,64.75-21.39,64.75S-36.88-1931.55-42.61-1940.08
		z"/>
	<path class="st5" d="M-115.78-1929.28c0.02-1.36,0.08-2.1,0.13-3.1c0.05-0.96,0.13-1.8,0.19-2.7c0.12-1.8,0.32-3.5,0.49-5.23
		c0.37-3.44,0.82-6.82,1.34-10.17c0.52-3.35,1.06-6.68,1.73-9.97c0.6-3.31,1.3-6.58,2.05-9.84c2.95-13.04,6.68-25.79,11-38.29
		l3.44-9.29l1.75-4.63l1.9-4.57l3.82-9.11l4.14-8.95l2.07-4.47c0.72-1.48,1.49-2.93,2.23-4.39l4.49-8.76
		c3.07-5.79,6.41-11.43,9.61-17.14c3.63-6.49,11.83-8.81,18.32-5.17c6.25,3.5,8.63,11.24,5.55,17.61l-0.35,0.72
		c-2.68,5.51-5.51,10.93-8.07,16.48l-3.72,8.37c-0.61,1.4-1.26,2.78-1.85,4.18l-1.69,4.25l-3.37,8.49l-3.05,8.6l-1.52,4.29
		l-1.36,4.34l-2.68,8.69c-3.31,11.64-6.05,23.41-8.04,35.22c-0.51,2.95-0.98,5.9-1.34,8.85c-0.43,2.95-0.74,5.89-1.03,8.82
		c-0.29,2.93-0.51,5.85-0.66,8.72c-0.06,1.43-0.15,2.88-0.16,4.24c-0.01,0.68-0.04,1.42-0.03,2.04c0.01,0.59,0,1.42,0.02,1.65
		c1,9.74-7.21,15.76-16.95,16.76s-17.33-3.39-18.33-13.14c-0.07-0.66-0.1-1.32-0.09-1.98L-115.78-1929.28z"/>
	<g>
		<path class="st3" d="M196.65-2195.03c-11.56-2.3-22.54,1.9-29.63,10.05l-69.68-13.9c-3.41-10.25-11.94-18.34-23.49-20.65
			c-17.22-3.43-33.39,7.36-36.82,24.58c-4.95,24.82,9.47,43.12,23.41,60.83c6.1,7.74,11.95,15.21,16.08,22.99
			c2.97,16.86,6.28,39.75,13.33,48.64c18.77,30.57-33.54,6.92-38.12,29.86l92.87,18.52c4.49-22.5-50.64-20.88-25.34-40.98
			c10.69-4.98,23.39-25.29,33.33-40.88c6.8-5.58,15.07-10.24,23.67-15.05c19.65-11,40-22.36,44.95-47.18
			C224.66-2175.42,213.86-2191.6,196.65-2195.03z M72.72-2143.8c-12.82-16.27-23.89-30.33-20.35-48.08
			c1.74-8.75,9.66-14.03,18.41-12.29c2.87,0.57,5.32,1.86,7.32,3.57c-3.61,18.94-5.14,38.95-4.62,57.74
			C73.23-2143.17,72.98-2143.49,72.72-2143.8z M168.63-2124.68c-0.35,0.19-0.7,0.39-1.05,0.59c7.69-17.16,13.95-36.22,17.88-55.11
			c2.5-0.81,5.25-1.06,8.13-0.49c8.76,1.75,14.03,9.66,12.29,18.41C202.33-2143.52,186.72-2134.79,168.63-2124.68z"/>
		<path class="st10" d="M128.02-2168.3l-4.16-0.83c-0.1,0.23-0.21,0.48-0.34,0.74c-1.07,2.1-3.33,5.12-6.52,7.23
			c-0.4,0.26-0.81,0.51-1.24,0.74c-0.85,0.46-1.76,0.85-2.73,1.14c-1.92,0.58-4.05,0.75-6.36,0.29l-1.99,9.98h0l11.51,2.3
			l-6.12,30.7l15.35,3.06l10.71-53.73L128.02-2168.3z"/>
	</g>
	<path class="st17" d="M165.06-2239.79l3.15,6.38c0.34,0.69,1,1.18,1.77,1.29l7.05,1.02c1.93,0.28,2.7,2.65,1.3,4.01l-5.1,4.97
		c-0.55,0.54-0.81,1.32-0.68,2.08l1.2,7.02c0.33,1.92-1.69,3.39-3.41,2.48l-6.3-3.31c-0.69-0.36-1.5-0.36-2.19,0l-6.3,3.31
		c-1.73,0.91-3.74-0.56-3.41-2.48l1.2-7.02c0.13-0.76-0.12-1.54-0.68-2.08l-5.1-4.97c-1.4-1.36-0.63-3.73,1.3-4.01l7.05-1.02
		c0.77-0.11,1.43-0.59,1.77-1.29l3.15-6.38C161.71-2241.54,164.2-2241.54,165.06-2239.79z"/>
	<path class="st14" d="M208.32-2247.92l2.58,5.22c0.28,0.57,0.82,0.96,1.45,1.05l5.76,0.84c1.58,0.23,2.21,2.17,1.07,3.28
		l-4.17,4.06c-0.45,0.44-0.66,1.08-0.55,1.7l0.98,5.74c0.27,1.57-1.38,2.77-2.79,2.03l-5.15-2.71c-0.56-0.29-1.23-0.29-1.79,0
		l-5.15,2.71c-1.41,0.74-3.06-0.46-2.79-2.03l0.98-5.74c0.11-0.62-0.1-1.26-0.55-1.7l-4.17-4.06c-1.14-1.11-0.51-3.05,1.07-3.28
		l5.76-0.84c0.63-0.09,1.17-0.48,1.45-1.05l2.58-5.22C205.57-2249.35,207.61-2249.35,208.32-2247.92z"/>
	<path class="st14" d="M20.37-2249.96l2.42,4.9c0.26,0.53,0.77,0.9,1.36,0.99l5.4,0.78c1.48,0.22,2.07,2.03,1,3.08l-3.91,3.81
		c-0.43,0.41-0.62,1.01-0.52,1.6l0.92,5.38c0.25,1.47-1.29,2.6-2.62,1.9l-4.83-2.54c-0.53-0.28-1.15-0.28-1.68,0l-4.83,2.54
		c-1.32,0.7-2.87-0.43-2.62-1.9l0.92-5.38c0.1-0.59-0.09-1.18-0.52-1.6l-3.91-3.81c-1.07-1.04-0.48-2.86,1-3.08l5.4-0.78
		c0.59-0.09,1.1-0.45,1.36-0.99l2.42-4.9C17.8-2251.3,19.71-2251.3,20.37-2249.96z"/>
	<path class="st2" d="M277.96-2151.56c0.55-3.95-2.21-7.6-6.16-8.15l-22.64-3.15c-2.04-0.28-4.09,0.85-4.87,2.86
		c-0.91,2.35,0.25,4.99,2.6,5.9l21.3,8.28c0.5,0.19,1.07,0.35,1.62,0.42C273.76-2144.85,277.41-2147.61,277.96-2151.56z"/>
	<path class="st17" d="M289.66-2194.29c-1.68-4.26-6.5-6.35-10.76-4.67l-33.11,13.07c-1.96,0.77-3.18,2.83-2.82,4.98
		c0.42,2.48,2.76,4.15,5.24,3.73l35.1-5.89c0.55-0.1,1.14-0.25,1.67-0.47C289.26-2185.21,291.35-2190.03,289.66-2194.29z"/>
	<path class="st14" d="M9.9-2156.88l-17.98,10.22c-0.41,0.24-0.84,0.54-1.21,0.87c-2.79,2.53-3.01,6.85-0.48,9.64
		c2.53,2.79,6.85,3.01,9.64,0.48l15.33-13.88c1.55-1.4,1.98-3.73,0.9-5.62C14.86-2157.36,12.08-2158.12,9.9-2156.88z"/>
	<path class="st17" d="M10.49-2182.11l-18.91-10.19c-0.68-0.36-1.47-0.65-2.27-0.81c-4.28-0.82-8.41,1.99-9.23,6.28
		c-0.82,4.28,1.99,8.41,6.28,9.23l21.1,4.02c1.91,0.36,3.92-0.52,4.89-2.33C13.54-2178.13,12.71-2180.91,10.49-2182.11z"/>
	<path class="st18" d="M251.36-2106.42l3.43,6.96c0.37,0.76,1.09,1.28,1.93,1.4l7.68,1.12c2.1,0.31,2.94,2.89,1.42,4.37l-5.55,5.41
		c-0.6,0.59-0.88,1.44-0.74,2.27l1.31,7.64c0.36,2.09-1.84,3.69-3.72,2.7l-6.87-3.61c-0.75-0.39-1.64-0.39-2.39,0l-6.87,3.61
		c-1.88,0.99-4.08-0.61-3.72-2.7l1.31-7.64c0.14-0.83-0.13-1.68-0.74-2.27l-5.55-5.41c-1.52-1.48-0.68-4.07,1.42-4.37l7.68-1.12
		c0.83-0.12,1.56-0.65,1.93-1.4l3.43-6.96C247.71-2108.32,250.42-2108.32,251.36-2106.42z"/>
	<path class="st5" d="M-64.87-2079.19c0,0,6.55-32.35,23.44-31.87s45.11,11.24,19.35,33.98
		C-42.52-2057.56-66.99-2069.78-64.87-2079.19z"/>
	<g>
		<path class="st5" d="M201.27-2117.8c0,0,8.84,31.76-1.1,39.99c-9.94,8.23-30.44,13.24-24.43-19.93
			C179.92-2125.35,198.82-2127.15,201.27-2117.8z"/>
		<path class="st5" d="M200.4-2119.94c0,0-8.14-14.28-15.87-12.31c-7.73,1.97,3.75,16.01,6.02,19.06
			C192.82-2110.14,203.75-2112.05,200.4-2119.94z"/>
		<path class="st5" d="M191.34-2119.4c0,0-11.02-12.19-18.15-8.6s7.11,14.82,9.99,17.31C186.05-2108.2,196.31-2112.41,191.34-2119.4
			z"/>
		<path class="st5" d="M184.81-2114.75c0,0-12.35-10.84-19.02-6.46c-6.67,4.38,8.77,13.91,11.91,16.05
			C180.85-2103.02,190.55-2108.38,184.81-2114.75z"/>
		<path class="st5" d="M181.27-2106.21c0,0-13.08-9.41-18.32-4.6c-5.23,4.81,10.4,12.68,13.62,14.48
			C179.79-2094.53,187.59-2100.55,181.27-2106.21z"/>
	</g>
	<path class="st5" d="M54.88-2041.15c3-1.52,10.72-10.97,14.61-4.32c4.56,7.81-6.65,8.45-7.61,13.36
		c-0.96,4.91-1.7,16.87-10.35,13.85S44.02-2035.64,54.88-2041.15z"/>
	<path class="st5" d="M122.96-2060.35c-2.93-1.28-10.78-9.86-14.12-3.32c-3.92,7.67,6.77,7.68,7.95,12.3
		c1.18,4.62,2.52,15.95,10.58,12.62S133.58-2055.7,122.96-2060.35z"/>
</g>
<g>
	<g>
		<path class="st0" d="M658.84,314.52c-11.92-62.24-71.9-169.64-137.46-110.68c-65.56,58.95-161.61,5.66-240.51-42.07
			c-78.9-47.74-174.21-17.33-219.41,42.87c-37.84,50.41-45.38,127.55,5.93,219.42c8.86,15.87,18.92,30.55,29.94,44.11h533.82
			C666.15,411.53,665.84,351.05,658.84,314.52z"/>
		<path class="st1" d="M97.37,468.15h533.82c34.99-56.62,34.67-117.1,27.68-153.63c-0.52-2.69-1.13-5.47-1.82-8.31
			c-70.62,32.67-173.32,63.05-283.4,38.61c-157.67-35.01-269.41-43.89-341.14-21.34c3.74,30.78,14.78,64.53,34.91,100.57
			C76.29,439.91,86.35,454.6,97.37,468.15z"/>
	</g>
	<path class="st6" d="M134.09,197.93c-6.01,0-10.88,4.87-10.88,10.88c0,6.01,4.87,10.88,10.88,10.88h66.06
		c8.08,0,14.62-6.55,14.62-14.62c0-8.08-6.55-14.62-14.62-14.62c-0.01,0-0.01,0-0.02,0c-0.38-10.5-9-18.9-19.6-18.9
		c-8.29,0-15.37,5.14-18.24,12.41c-1.95-0.76-4.06-1.18-6.27-1.18c-9.19,0-16.7,7.17-17.26,16.22
		C137.35,198.32,135.77,197.93,134.09,197.93 M170.95,208.81c0.08-0.14,0.16-0.27,0.24-0.41c0.26,0.14,0.53,0.28,0.8,0.41H170.95"/>
	<path class="st6" d="M595.7,281.22c-1.92,0-3.73,0.47-5.33,1.31c-1.83-3.38-5.41-5.68-9.52-5.68c-1.56,0-3.04,0.33-4.38,0.92
		c-2.06-6.32-7.99-10.88-14.99-10.88c-7.76,0-14.2,5.6-15.52,12.98c-1.28-0.44-2.65-0.68-4.08-0.68c-6.92,0-12.52,5.61-12.52,12.52
		c0,6.92,5.61,12.52,12.52,12.52h53.81c6.36,0,11.51-5.15,11.51-11.51C607.2,286.37,602.05,281.22,595.7,281.22"/>
	<path class="st19" d="M270.74,424.2c0-14.13-11.56-25.69-25.69-25.69H146.4c-14.13,0-25.69,11.56-25.69,25.69v43.95h150.03V424.2z"
		/>
	<path class="st19" d="M438.66,398.2c0-14.13-11.56-25.69-25.69-25.69h-98.66c-14.13,0-25.69,11.56-25.69,25.69v69.95h150.03V398.2z
		"/>
	<path class="st19" d="M607.12,361.8c0-14.13-11.56-25.69-25.69-25.69h-98.66c-14.13,0-25.69,11.56-25.69,25.69v106.35h150.03V361.8
		z"/>
	<g>
		<path class="st20" d="M126.27,364.13c-0.11,0.63-7.88-1.22-9.99,6.31c-2.12,7.53-5.78,11.89-8.3,6.93
			c-0.42-9.59,5.34-25.84,5.34-25.84s8.96-0.53,14.57,3.36C131.8,361.07,126.27,364.13,126.27,364.13z"/>
		<path class="st5" d="M292.66,214.46c0.68-0.02,1.06-0.05,1.56-0.08c0.48-0.03,0.9-0.07,1.36-0.11c0.9-0.07,1.76-0.18,2.62-0.28
			c1.73-0.21,3.42-0.45,5.1-0.73c1.68-0.28,3.35-0.57,5-0.92c1.66-0.32,3.3-0.69,4.93-1.08c6.53-1.55,12.92-3.49,19.18-5.73
			l4.65-1.78l2.32-0.9l2.28-0.98l4.56-1.97l4.48-2.13l2.24-1.07c0.74-0.37,1.46-0.76,2.19-1.14l4.38-2.3
			c2.89-1.57,5.71-3.28,8.56-4.92c3.24-1.86,4.36-5.99,2.5-9.23c-1.79-3.12-5.69-4.28-8.88-2.69l-0.36,0.18
			c-2.75,1.38-5.46,2.83-8.23,4.14l-4.18,1.91c-0.7,0.32-1.39,0.65-2.09,0.95l-2.13,0.87l-4.25,1.74l-4.3,1.58l-2.15,0.79
			l-2.17,0.71l-4.35,1.39c-5.83,1.73-11.73,3.17-17.65,4.23c-1.48,0.27-2.96,0.52-4.44,0.72c-1.48,0.23-2.95,0.4-4.43,0.56
			c-1.47,0.16-2.94,0.29-4.38,0.38c-0.72,0.04-1.45,0.09-2.13,0.11c-0.34,0.01-0.71,0.03-1.02,0.03c-0.29,0-0.71,0.01-0.83,0
			c-4.9-0.45-7.88,3.71-8.33,8.61c-0.45,4.9,1.8,8.69,6.7,9.14c0.33,0.03,0.67,0.04,0.99,0.04L292.66,214.46z"/>
		<path class="st5" d="M382.17,185.93c0,0-11.21,10.01-17.2,5.23c-5.99-4.77-13.29-16.37,2.26-17.65
			C379.97,171.97,385.51,183.09,382.17,185.93z"/>
		<path class="st3" d="M301.03,214.65c0,0,6.37-8.25-0.33-15.57c-6.7-7.32-17-15.81-23.5-11.76c-6.51,4.05-1.37,20.7,5.19,27.78
			C288.96,222.19,295.51,219.91,301.03,214.65z"/>
		<path class="st20" d="M91.59,331.63c-0.11,0.63-7.88-1.22-9.99,6.31c-2.12,7.53-5.78,11.89-8.3,6.93
			c-0.42-9.59,5.34-25.84,5.34-25.84s8.96-0.53,14.57,3.36C97.13,328.56,91.59,331.63,91.59,331.63z"/>
		<path class="st9" d="M253.97,280.58c0,0-92.54,74.58-118.86,84.25c-6.38,3.43-9.03,1.57-14.3-3.51s-8.94-10.79-0.45-17.54
			s47.32-40.16,53.31-45.85c-18.74,12.11-64.43,32.3-69.21,34.65c-4.78,2.35-11.33,2.87-17.47-3.13s-4.41-11.59,4.76-18.55
			c9.17-6.96,106.94-68.76,120.87-77.17C246.83,241.13,253.97,280.58,253.97,280.58z"/>
		<path class="st3" d="M292.52,195.11c0,0,13.25,19.8-36.6,88.23c-22.92-28.63-57.8-45.03-57.8-45.03s39.79-57.98,73.68-61.7
			C289.2,177.18,292.52,195.11,292.52,195.11z"/>
		<path class="st5" d="M258.31,193.58c-0.05-0.01-0.28,0-0.44,0l-0.56,0.01l-1.16,0.03c-0.79,0.03-1.58,0.06-2.38,0.11
			c-1.6,0.09-3.2,0.23-4.79,0.4c-3.19,0.34-6.34,0.84-9.37,1.51c-3.03,0.67-5.95,1.52-8.6,2.58c-2.65,1.06-5.03,2.33-6.86,3.76
			c-1.84,1.44-3.05,2.92-3.77,4.53c-0.72,1.6-1,3.54-0.78,5.91c0.23,2.36,1.01,5.03,2.17,7.73c1.14,2.71,2.65,5.46,4.37,8.17
			l0.03,0.04c2.47,3.89,1.31,9.05-2.58,11.52c-3.76,2.38-8.7,1.37-11.26-2.19c-2.26-3.16-4.39-6.53-6.23-10.26
			c-1.83-3.72-3.41-7.82-4.19-12.49c-0.38-2.34-0.55-4.81-0.37-7.36c0.17-2.55,0.69-5.18,1.6-7.68c0.9-2.5,2.18-4.86,3.68-6.95
			c1.5-2.09,3.21-3.92,5-5.5c3.59-3.17,7.45-5.42,11.28-7.23c3.84-1.8,7.69-3.14,11.53-4.23c3.84-1.08,7.67-1.9,11.51-2.53
			c1.92-0.32,3.84-0.59,5.78-0.81c0.97-0.11,1.94-0.21,2.92-0.3l1.49-0.12l0.77-0.05l0.89-0.05l0.99-0.05
			c5.96-0.3,9.08,4.01,9.38,9.96c0.3,5.96-2.33,11.3-8.29,11.61C259.47,193.66,258.85,193.63,258.31,193.58z"/>
		<path class="st3" d="M275.58,185.38c0,0-5.37-23.03-25.96-12.66c9.64,3.79,5.25,22.26,5.25,22.26S272.92,204.84,275.58,185.38z"/>
		<g>
			<g>
				<path class="st5" d="M241.08,239.28c0,0-14.13-11.29-20.43-8.04c-6.29,3.25-13.23,12.52,4.81,16.62
					C240.31,251.67,245.28,242.52,241.08,239.28z"/>
				<path class="st5" d="M241.98,240.17c0,0,5.46,7.18,2.8,10.66c-2.66,3.48-7.27-5.34-8.33-7.14S238.71,236.79,241.98,240.17z"/>
				<path class="st5" d="M239.76,244.63c0,0,3.78,8.19,0.44,11.01s-5.95-6.78-6.59-8.76S237.3,240.62,239.76,244.63z"/>
				<path class="st5" d="M236.01,246.93c0,0,2.82,8.57-0.83,10.99c-3.65,2.43-5.14-7.42-5.54-9.46S234.02,242.66,236.01,246.93z"/>
				<path class="st5" d="M230.93,246.88c0,0,1.94,8.63-1.62,10.24c-3.55,1.61-4.17-7.98-4.38-9.99
					C224.72,245.11,229.43,242.47,230.93,246.88z"/>
			</g>
		</g>
		<path class="st5" d="M297.65,180.07c0,0-10.68,4.06-9.49,6.93c1.2,2.86,5.09,16.98-4.31,7.74c-13.2-12.98-13.12-18.37-8.41-17.43
			c4.72,0.94,9.24-0.98,12.37-8c1.52-4.62,4.57-7.29,11.33-1.57C305.91,173.45,302.98,178.83,297.65,180.07z"/>
		<g>
			<path class="st5" d="M295.65,184.34c0,0-12.45-4.48-12.41-13.72c0.05-9.25,4.05-25.08,16.59-22.88
				c12.54,2.2,16.01,14.57,14.05,25.64C311.91,184.44,301.84,187.04,295.65,184.34z"/>
			<path class="st10" d="M284.14,175.14c0,0-2.81-12.76-4.24-21.2s9.78-17.18,24.33-12c15.27-2.72,21.36,2.4,23.59,10.11
				c-3.91-2.42-8.55-1.57-8.55-1.57s6.83,5.97,4.93,11.71c-3-6.3-25.32-6.47-25.32-6.47s-2.59,6.92-2.06,8.97
				c-5.37-2.59-11.81-8.61-9.5,5.22C288.26,173.27,284.14,175.14,284.14,175.14z"/>
		</g>
	</g>
	<g>
		<g>
			<path class="st5" d="M291.01,319.81c0,0,35.97-20.73,51.57-26.77c12.7,11.24,13.41,24.89,13.41,24.89s-43.71,22.44-55.25,29.65
				C284.43,339.97,291.01,319.81,291.01,319.81z"/>
			<path class="st21" d="M302.95,348.56c0,0-6.33-19.75,1.59-37.15c-13.58-5.44-22.25,3.77-22.25,3.77s-10.04,45.58-7.75,52.83
				c2.29,7.24,9.22-2.1,12.64-8.94C290.6,352.23,302.95,348.56,302.95,348.56z"/>
		</g>
		<g>
			<path class="st5" d="M315.22,360.7c0,0,35.97-20.73,51.57-26.77c12.7,11.24,13.41,24.89,13.41,24.89s-43.71,22.44-55.25,29.65
				C308.64,380.86,315.22,360.7,315.22,360.7z"/>
			<path class="st21" d="M327.16,389.45c0,0-6.33-19.75,1.59-37.15c-13.58-5.44-22.25,3.77-22.25,3.77s-10.04,45.58-7.75,52.83
				c2.29,7.24,9.22-2.1,12.64-8.94S327.16,389.45,327.16,389.45z"/>
		</g>
		<path class="st5" d="M521.22,197.38c0.89-0.23,1.37-0.39,2.01-0.59c0.62-0.19,1.16-0.38,1.74-0.56c1.16-0.37,2.25-0.78,3.35-1.17
			c2.2-0.8,4.34-1.64,6.46-2.53c2.11-0.89,4.21-1.78,6.26-2.75c2.08-0.93,4.11-1.92,6.12-2.94c8.08-4.05,15.84-8.56,23.34-13.43
			l5.54-3.76l2.76-1.9l2.69-1.99l5.36-3.98l5.2-4.17l2.6-2.09c0.85-0.71,1.68-1.45,2.52-2.18l5.02-4.37
			c3.3-2.95,6.46-6.06,9.69-9.08c3.67-3.43,3.86-9.19,0.42-12.86c-3.31-3.54-8.78-3.84-12.45-0.79l-0.42,0.35
			c-3.18,2.65-6.28,5.39-9.5,7.97l-4.89,3.8c-0.82,0.63-1.62,1.28-2.45,1.89l-2.51,1.8l-5.02,3.59l-5.15,3.39l-2.57,1.69l-2.63,1.6
			l-5.26,3.17c-7.1,4.06-14.38,7.77-21.8,10.99c-1.85,0.81-3.71,1.6-5.59,2.31c-1.87,0.76-3.74,1.44-5.62,2.11
			c-1.87,0.67-3.76,1.28-5.61,1.85c-0.93,0.27-1.86,0.57-2.76,0.8c-0.44,0.12-0.92,0.26-1.33,0.35c-0.39,0.09-0.93,0.23-1.08,0.25
			c-6.55,0.92-9.17,7.29-8.25,13.84s5.04,10.82,11.59,9.9c0.45-0.06,0.88-0.15,1.31-0.26L521.22,197.38z"/>
		<path class="st22" d="M507.59,211.36c0,0,0.46-16,7.58-22.03c5.25-3.2,15.96,1.41,15.96,1.41S510.67,205.14,507.59,211.36z"/>
		<path class="st14" d="M523.93,98.14c0,0-19.99-6.18-32.29,10.22s-11.71,27.38-18.13,35.67s-40.4,19.81-45.93,36.84
			c-5.53,17.03-8.57,53.67,32.41,56.51s85.93-26.52,93-64.91C560.06,134.08,553.31,104.28,523.93,98.14z"/>
		<path class="st6" d="M488.44,162.02c0,0-18.65-6.36-34.98,26.14S304.48,301.01,304.48,301.01s22.83,61.15,103.47,93.55
			C547.53,241.47,539.44,212.94,534.2,198.46C528.96,183.97,519.93,165.46,488.44,162.02z"/>
		<path class="st5" d="M475.46,197.12c-0.06,0.03-0.32,0.21-0.51,0.34l-0.64,0.45l-1.31,0.95c-0.88,0.65-1.77,1.32-2.65,2
			c-1.76,1.37-3.49,2.78-5.19,4.23c-3.39,2.9-6.61,5.96-9.57,9.12c-2.95,3.16-5.63,6.44-7.84,9.75c-2.21,3.3-3.94,6.65-4.91,9.72
			c-0.98,3.09-1.2,5.76-0.76,8.17c0.43,2.41,1.64,4.85,3.76,7.39c2.12,2.52,5.13,4.97,8.58,7.17c3.45,2.21,7.35,4.18,11.45,5.93
			l0.07,0.03c5.91,2.52,8.65,9.36,6.12,15.26c-2.43,5.69-8.91,8.43-14.66,6.36c-5.09-1.85-10.19-4.03-15.24-6.86
			c-5.03-2.83-10.08-6.29-14.66-11.04c-2.27-2.39-4.42-5.09-6.23-8.16c-1.82-3.06-3.29-6.49-4.22-10.08
			c-0.94-3.59-1.33-7.3-1.26-10.88c0.07-3.58,0.6-7.03,1.4-10.26c1.63-6.47,4.28-12.09,7.25-17.19c2.99-5.09,6.36-9.67,9.91-13.94
			c3.56-4.27,7.31-8.23,11.21-11.98c1.96-1.88,3.95-3.7,5.99-5.48c1.02-0.89,2.06-1.77,3.12-2.65l1.62-1.32l0.84-0.67l0.98-0.75
			l1.1-0.84c6.6-5.04,13.58-2.56,18.63,4.04c5.04,6.6,6.23,14.82-0.37,19.86C476.86,196.3,476.13,196.76,475.46,197.12z"/>
		<path class="st6" d="M487.8,173.3c0,0-24.32-22.21-39.79,5.93c14.05-3.25,23.58,21.41,23.58,21.41S500.09,197.73,487.8,173.3z"/>
		<path class="st5" d="M521.57,158.77c0,0-10.72,8.46-8.74,11.23c1.98,2.77,16.29,17.96-2.26,8.51
			c-22.69-11.56-18.85-15.17-13.61-15.47c5.23-0.3,9.95-4.71,11.53-13.2c0.47-5.43,3.04-9.17,11.63-4.85
			C528.69,149.31,526.92,155.95,521.57,158.77z"/>
		<path class="st5" d="M541.17,117.6c0.31,0.7,21.81,50.19-19.09,40.66c0,0-20.26-3.09-18.16-34.58
			C505.47,100.53,533.8,100.8,541.17,117.6z"/>
		<path class="st14" d="M534.05,103.35c0,0-2.53,31.39-34.8,38.88C494.83,121.09,490.85,98.6,534.05,103.35z"/>
		<g>
			<g>
				<path class="st5" d="M491.71,263.17c0,0-25.13-1.82-29.79,6.87c-4.66,8.69-5.32,24.8,18.62,15.29
					C500.58,278.01,499.08,263.58,491.71,263.17z"/>
				<path class="st5" d="M493.44,263.49c0,0,11.92,3.94,11.62,10.03s-12.56-0.39-15.19-1.63
					C487.24,270.65,487.02,262.18,493.44,263.49z"/>
				<path class="st5" d="M494.4,270.36c0,0,10.8,6.41,9.19,12.3s-12.18-3.09-14.48-4.87S488.42,267.7,494.4,270.36z"/>
				<path class="st5" d="M491.91,275.95c0,0,9.99,7.61,7.71,13.27s-11.74-4.46-13.82-6.49
					C483.72,280.69,486.27,272.61,491.91,275.95z"/>
				<path class="st5" d="M486.05,279.89c0,0,9.03,8.38,6.21,13.02s-11.07-5.87-12.91-8.01
					C477.52,282.76,480.85,276.01,486.05,279.89z"/>
			</g>
		</g>
		<path class="st5" d="M599.39,136.58c0,0,16.84,11.18,23.91,3.68c7.07-7.5,14.56-24.34-6.39-23.07
			C599.65,117.57,594.4,133.43,599.39,136.58z"/>
	</g>
</g>
</svg>
